<?xml version="1.0" encoding="utf-8"?>
<!-- Generator: Adobe Illustrator 22.0.0, SVG Export Plug-In . SVG Version: 6.00 Build 0)  -->
<svg version="1.1" id="Layer_1" xmlns="http://www.w3.org/2000/svg" xmlns:xlink="http://www.w3.org/1999/xlink" x="0px" y="0px"
	 viewBox="0 0 350.9 117.6" style="enable-background:new 0 0 350.9 117.6;" xml:space="preserve">
<style type="text/css">
	.st0{fill:#FFD15C;}
</style>
<g id="Secondary">
	<path class="st0" d="M249.4,2.7C245-2,237.9,5,242.4,9.7c11.7,12.4,23.5,24.9,35.2,37.3c4.4,4.7,11.5-2.4,7.1-7.1
		C272.9,27.6,261.2,15.1,249.4,2.7z"/>
	<path class="st0" d="M349.4,108.8c-11.7-12.4-23.5-24.9-35.2-37.3c-4.4-4.7-11.5,2.4-7.1,7.1c11.7,12.4,23.5,24.9,35.2,37.3
		C346.8,120.6,353.8,113.5,349.4,108.8z"/>
</g>
<g id="Primary">
	<path d="M249.4,115.9c29.2-31,58.5-62.1,87.7-93.1c4.1-4.4,8.2-8.7,12.3-13.1c4.4-4.7-2.6-11.8-7.1-7.1
		c-29.2,31-58.5,62.1-87.7,93.1c-4.1,4.4-8.2,8.7-12.3,13.1C237.9,113.5,245,120.6,249.4,115.9L249.4,115.9z"/>
	<path d="M168.7,23.9c0,25.8,0,51.6,0,77.4c0,3.8,0,7.5,0,11.3c0,6.5,10,6.5,10,0c0-25.8,0-51.6,0-77.4c0-3.8,0-7.5,0-11.3
		C178.7,17.4,168.7,17.3,168.7,23.9L168.7,23.9z"/>
	<path d="M123.7,10.3c33.3,0,66.7,0,100,0c6.4,0,6.4-10.1,0-10.1c-33.3,0-66.7,0-100,0C117.3,0.2,117.3,10.3,123.7,10.3L123.7,10.3z
		"/>
	<path d="M74.7,13.1c5.2,0.6,10.5,1.6,15.5,3.2c2,0.6,3.5,1.2,4.5,1.6c5.7,2.9,10.8-5.8,5-8.6c-7.7-3.8-16.6-5.2-25-6.2
		C68.3,2.4,68.4,12.4,74.7,13.1L74.7,13.1z"/>
	<path d="M73.2,113c16.8-0.2,35-7.9,36.7-26.7c1.4-15.7-9.3-26.2-23.5-30.2c-12.4-3.5-25.3-2.8-38-3.1c-11.2-0.3-27.3-0.9-35-10.4
		c-5-6.1-4.3-15.9,1.1-21.5c6.1-6.3,15.8-7.9,24.1-8C45,13,45,3,38.6,3.1C23.3,3.3,4.5,9.2,0.8,26.1c-3.4,15.2,5.5,27.3,19.4,32.4
		C32,62.9,45,62.9,57.4,63c11.9,0,27.5-0.2,37.2,8c6.2,5.3,7.2,15.4,2.8,22.2c-5.1,7.8-15.6,9.7-24.2,9.8
		C66.8,103,66.8,113,73.2,113L73.2,113z"/>
	<path d="M6,105.8c8.7,5.2,17.6,6.6,27.7,7.2c6.4,0.4,6.4-9.6,0-10c-8.3-0.5-15.4-1.6-22.6-5.8C5.5,93.8,0.5,102.5,6,105.8L6,105.8z
		"/>
</g>
</svg>
